<svg xmlns="http://www.w3.org/2000/svg" xmlns:xlink="http://www.w3.org/1999/xlink" width="400" zoomAndPan="magnify" viewBox="0 0 300 299.999988" height="400" preserveAspectRatio="xMidYMid meet" version="1.0"><defs><clipPath id="c5fe3f11e2"><path d="M 8.5625 8.5625 L 291.3125 8.5625 L 291.3125 291.3125 L 8.5625 291.3125 Z M 8.5625 8.5625 " clip-rule="nonzero"/></clipPath></defs><g clip-path="url(#c5fe3f11e2)"><path fill="#e13559" d="M 291.3125 150.378906 L 254.203125 120.433594 L 278.058594 79.039062 L 227.695312 74.640625 L 223.277344 26.191406 L 180.863281 46.453125 L 151.707031 8.5625 L 124.316406 47.316406 L 80.136719 24.414062 L 77.484375 74.628906 L 28.003906 77.269531 L 46.558594 124.835938 L 8.5625 147.738281 L 47.441406 176.808594 L 28.003906 218.207031 L 76.601562 223.488281 L 79.25 272.820312 L 124.316406 251.675781 L 154.355469 291.3125 L 180.863281 251.675781 L 222.394531 271.933594 L 225.929688 222.605469 L 274.527344 221.722656 L 256.855469 181.199219 L 291.3125 150.378906 " fill-opacity="1" fill-rule="nonzero"/></g><path fill="#ffffff" d="M 93.054688 187.773438 L 75.609375 137.941406 L 88.765625 133.335938 L 105.511719 147.976562 C 110.308594 152.191406 115.433594 157.371094 119.632812 162.210938 L 119.851562 162.132812 C 116.804688 155.804688 114.222656 149.152344 111.617188 141.695312 L 106.519531 127.125 L 116.867188 123.511719 L 134.308594 173.34375 L 122.476562 177.488281 L 105.105469 161.992188 C 100.28125 157.703125 94.777344 152.402344 90.289062 147.429688 L 90.101562 147.578125 C 92.699219 154.054688 95.304688 161.027344 98.140625 169.15625 L 103.398438 184.167969 L 93.054688 187.773438 " fill-opacity="1" fill-rule="nonzero"/><path fill="#ffffff" d="M 157.617188 140.289062 C 156.664062 137.550781 153.871094 133.386719 148.691406 135.199219 C 143.964844 136.863281 143.539062 141.808594 144.308594 144.957031 Z M 147.074219 152.605469 C 149.082031 157.140625 154.425781 157.75 159.691406 155.910156 C 163.539062 154.566406 166.460938 152.953125 169.148438 150.9375 L 173.292969 158.03125 C 170.117188 160.804688 165.859375 163.128906 160.984375 164.84375 C 148.710938 169.140625 139.203125 164.5 135.234375 153.1875 C 132.039062 144.027344 134.183594 131.902344 146.746094 127.503906 C 158.429688 123.414062 166.054688 130.960938 169.183594 139.902344 C 169.855469 141.820312 170.234375 143.601562 170.375 144.46875 L 147.074219 152.605469 " fill-opacity="1" fill-rule="nonzero"/><path fill="#ffffff" d="M 177.207031 117.75 L 185.257812 131.523438 C 187.3125 135.03125 189.460938 138.769531 191.492188 142.710938 L 191.644531 142.65625 C 190.9375 138.257812 190.511719 133.75 190.167969 129.898438 L 188.808594 113.691406 L 197.6875 110.582031 L 206.347656 123.730469 C 208.734375 127.460938 211.117188 131.195312 213.3125 135.066406 L 213.449219 135.015625 C 212.53125 130.703125 211.84375 126.363281 211.207031 121.945312 L 209.289062 106.507812 L 220.316406 102.648438 L 221.871094 142.683594 L 211.304688 146.386719 L 203.449219 134.855469 C 201.320312 131.621094 199.507812 128.597656 197.230469 124.421875 L 197.070312 124.472656 C 197.988281 129.210938 198.40625 132.796875 198.640625 136.535156 L 199.464844 150.519531 L 188.894531 154.226562 L 165.753906 121.734375 L 177.207031 117.75 " fill-opacity="1" fill-rule="nonzero"/></svg>